<svg width="30" height="30" fill="none" xmlns="http://www.w3.org/2000/svg"><circle cx="15" cy="15" r="14.5" fill="#5FB45E" stroke="#fff"/><path d="M22.25 22.406h-1.797a.36.36 0 110-.718h1.797a2.878 2.878 0 002.875-2.875V13.78a2.878 2.878 0 00-2.875-2.875h-1.797a.36.36 0 110-.719h1.797a3.598 3.598 0 013.594 3.594v5.031a3.598 3.598 0 01-3.594 3.594z" fill="#fff"/><path d="M22.25 20.25h-1.797a.36.36 0 010-.719h1.797a.719.719 0 00.719-.718V13.78a.719.719 0 00-.719-.719h-1.797a.36.36 0 010-.718h1.797a1.438 1.438 0 011.438 1.437v5.031a1.438 1.438 0 01-1.438 1.438z" fill="#fff"/><path d="M19.734 23.844h-11.5a1.078 1.078 0 01-1.078-1.078V9.828A1.078 1.078 0 018.234 8.75h11.5a1.078 1.078 0 011.078 1.078v12.938a1.078 1.078 0 01-1.078 1.078zM8.234 9.469a.36.36 0 00-.359.36v12.937a.36.36 0 00.36.359h11.5a.36.36 0 00.359-.36V9.829a.36.36 0 00-.36-.36h-11.5zm2.876-1.438a.36.36 0 01-.255-.613.827.827 0 000-1.289 1.545 1.545 0 010-2.305.36.36 0 11.508.508.827.827 0 000 1.289 1.545 1.545 0 010 2.305.36.36 0 01-.254.105zm2.874 0a.36.36 0 01-.254-.613.827.827 0 000-1.289 1.545 1.545 0 010-2.305.36.36 0 11.508.508.827.827 0 000 1.289 1.545 1.545 0 010 2.305.36.36 0 01-.254.105zm2.876 0a.36.36 0 01-.255-.613.827.827 0 000-1.289 1.545 1.545 0 010-2.305.36.36 0 11.508.508.827.827 0 000 1.289 1.545 1.545 0 010 2.305.36.36 0 01-.254.105z" fill="#fff"/></svg>