<svg width="265" height="52" fill="none" xmlns="http://www.w3.org/2000/svg"><path d="M74 43.875h-3.75a.722.722 0 01-.53-.238.848.848 0 01-.22-.575c0-.215.079-.422.22-.574a.722.722 0 01.53-.238H74c1.59-.002 3.116-.687 4.24-1.906 1.126-1.218 1.758-2.87 1.76-4.594V24.375c-.002-1.723-.635-3.375-1.76-4.594-1.124-1.219-2.65-1.904-4.24-1.906h-3.75a.722.722 0 01-.53-.238.848.848 0 01-.22-.575c0-.215.079-.422.22-.574a.722.722 0 01.53-.238H74c1.989.002 3.895.86 5.3 2.382 1.407 1.524 2.198 3.589 2.2 5.743V35.75c-.002 2.154-.793 4.22-2.2 5.743-1.405 1.523-3.311 2.38-5.3 2.382z" fill="#363636"/><path d="M74 39h-3.75a.722.722 0 01-.53-.238.848.848 0 01-.22-.575c0-.215.079-.422.22-.574a.722.722 0 01.53-.238H74c.398 0 .78-.171 1.06-.476.282-.305.44-.718.44-1.149V24.375c0-.431-.158-.844-.44-1.149A1.444 1.444 0 0074 22.75h-3.75a.722.722 0 01-.53-.238.848.848 0 01-.22-.575c0-.215.079-.422.22-.574a.722.722 0 01.53-.238H74c.796 0 1.559.342 2.121.952.563.61.879 1.436.879 2.298V35.75a3.39 3.39 0 01-.879 2.298A2.888 2.888 0 0174 39z" fill="#363636"/><path d="M68.75 47.125h-24a2.166 2.166 0 01-1.591-.714 2.545 2.545 0 01-.659-1.724v-29.25c0-.646.237-1.266.659-1.723A2.166 2.166 0 0144.75 13h24c.597 0 1.169.257 1.591.714.422.457.659 1.077.659 1.723v29.25c0 .647-.237 1.267-.659 1.724a2.166 2.166 0 01-1.591.714zm-24-32.5a.722.722 0 00-.53.238.848.848 0 00-.22.575v29.25c0 .215.079.422.22.574.14.152.331.238.53.238h24c.199 0 .39-.086.53-.238a.848.848 0 00.22-.575v-29.25a.848.848 0 00-.22-.574.722.722 0 00-.53-.238h-24z" fill="#363636"/><path d="M50.75 11.375a.71.71 0 01-.417-.137.802.802 0 01-.276-.365.876.876 0 01-.042-.469.835.835 0 01.205-.416 1.86 1.86 0 00.475-.649 1.998 1.998 0 000-1.616 1.853 1.853 0 00-.475-.649 3.493 3.493 0 01-.795-1.178 3.741 3.741 0 01-.282-1.427c0-.492.096-.979.282-1.428.185-.449.456-.85.795-1.178a.752.752 0 01.243-.182.701.701 0 01.827.172.82.82 0 01.163.267.872.872 0 01-.173.892 1.852 1.852 0 00-.475.649 1.998 1.998 0 000 1.615c.112.253.274.474.475.65.339.327.61.729.795 1.178a3.743 3.743 0 010 2.855c-.185.449-.456.85-.795 1.178a.722.722 0 01-.53.238zm6 0a.71.71 0 01-.417-.137.802.802 0 01-.276-.365.876.876 0 01-.042-.469.835.835 0 01.205-.416 1.86 1.86 0 00.475-.649 1.998 1.998 0 000-1.616 1.853 1.853 0 00-.475-.649 3.493 3.493 0 01-.795-1.178 3.741 3.741 0 01-.282-1.427c0-.492.096-.979.282-1.428.185-.449.456-.85.795-1.178a.752.752 0 01.243-.182.701.701 0 01.827.172.82.82 0 01.163.267.872.872 0 01-.173.892 1.852 1.852 0 00-.475.649 1.998 1.998 0 000 1.615c.112.253.274.474.475.65.339.327.61.729.795 1.178a3.743 3.743 0 010 2.855c-.185.449-.456.85-.795 1.178a.722.722 0 01-.53.238zm6 0a.71.71 0 01-.417-.137.802.802 0 01-.276-.365.876.876 0 01-.042-.469.835.835 0 01.205-.416 1.86 1.86 0 00.475-.649 1.998 1.998 0 000-1.616 1.853 1.853 0 00-.475-.649 3.493 3.493 0 01-.795-1.178 3.741 3.741 0 01-.282-1.427c0-.492.096-.979.282-1.428.185-.449.456-.85.795-1.178a.752.752 0 01.243-.182.701.701 0 01.827.172.82.82 0 01.163.267.872.872 0 01-.173.892 1.852 1.852 0 00-.475.649 1.998 1.998 0 000 1.615c.112.253.274.474.475.65.339.327.61.729.796 1.178.185.449.28.935.28 1.427s-.095.979-.28 1.428a3.5 3.5 0 01-.796 1.178.722.722 0 01-.53.238zM12.27 29.46a52.64 52.64 0 01-.12-3.87c0-1.54.07-3.07.21-4.59h8.28c-.74 3.7-1.11 7.24-1.11 10.62 0 1.58.07 3.04.21 4.38h-6.57c-.3-1.54-.52-2.92-.66-4.14-1-.64-2.72-.96-5.16-.96-1.16 0-2.3.07-3.42.21-1.36-3.06-2.26-6.43-2.7-10.11h7.65c0 5.18 1.13 8 3.39 8.46zm30.168 6.3V36h-6.96a25.59 25.59 0 00-.51-3.54 30.66 30.66 0 01-4.2 3.54h-6.99c-.14-.82-.21-1.9-.21-3.24 0-1.36.2-2.72.6-4.08 1.44-.42 2.82-1.13 4.14-2.13 1.34-1 2.31-2.08 2.91-3.24-.54-.84-1.11-1.61-1.71-2.31h9.96c1.98 4.3 2.97 9.22 2.97 14.76zm-8.01-5.49c-.52-1.78-1.2-3.46-2.04-5.04-.94 2.76-1.48 5.37-1.62 7.83 1.44-.74 2.66-1.67 3.66-2.79zm21.168-12.72c.7.44 1.52.66 2.46.66.96 0 1.82-.33 2.58-.99.04 0-.05.2-.27.6-.22.38-.59.78-1.11 1.2-.66.56-1.55.84-2.67.84h-.15c-.96 0-1.94-.31-2.94-.93l-.42-.24c.1-.6.28-1.26.54-1.98.28-.74.43-1.11.45-1.11l1.53 1.95zM47.016 36c.26-2 .39-4.36.39-7.08 0-2.74-.18-5.38-.54-7.92h7.92c.02.36.03 1.32.03 2.88 0 1.56-.18 3.63-.54 6.21 1.6-1.46 3.03-3.18 4.29-5.16a30.93 30.93 0 00-.33-3.93h7.77c.04 1.2.06 2.1.06 2.7 0 3.88-.38 7.98-1.14 12.3h-7.17c.4-2.68.66-5.1.78-7.26-1.12 1.74-2.96 4.16-5.52 7.26h-6zm51.619-1.95c1.36 0 2.47-.11 3.33-.33-.36-2.22-1.38-3.87-3.06-4.95-.18 1.78-.27 3.54-.27 5.28zM91.075 27c0-2.1.19-4.1.57-6h16.65c-.9 2.8-2.62 4.83-5.16 6.09 2.3.82 4.14 1.96 5.52 3.42-.18 1.86-.61 3.69-1.29 5.49h-15.09c-.8-2.78-1.2-5.78-1.2-9zm8.07-.3c.98-.26 1.89-.71 2.73-1.35.84-.64 1.44-1.43 1.8-2.37-1.6 0-2.9.05-3.9.15-.24 1.16-.45 2.35-.63 3.57zm12.579 9.3c-.46-1.92-.69-4.42-.69-7.5s.28-5.58.84-7.5h7.41c-.32 1.9-.53 3.61-.63 5.13 3.5.4 6.61 1.28 9.33 2.64-.06 2.66-.38 5.07-.96 7.23h-15.3zm6.87-7.8c0 2.12.25 4.06.75 5.82 1.04-1.28 1.7-2.95 1.98-5.01-.88-.46-1.79-.73-2.73-.81zm18.69-4.14c0 4.18-.34 8.16-1.02 11.94h-6.81c.26-1.96.39-4.3.39-7.02 0-2.74-.18-5.4-.54-7.98h7.92c.04 1.36.06 2.38.06 3.06zm10.022 8.19c0 1.14.05 2.39.15 3.75h-6.6c-.82-3.18-1.23-6.56-1.23-10.14 0-1.82.11-3.44.33-4.86h16.26c.58 2.26.9 4.95.96 8.07-2.96 1.32-6.25 2.18-9.87 2.58v.6zm.03-2.67c1.28-.16 2.35-.48 3.21-.96-.32-2.12-1.18-4-2.58-5.64-.32 1.98-.53 4.18-.63 6.6zm30.752-8.01c-.68.16-1.25.24-1.71.24-.46 0-.9-.03-1.32-.09-.62.74-1.18 1.73-1.68 2.97-.5 1.24-.88 2.35-1.14 3.33-.24.98-.51 2.18-.81 3.6-1.52 7.24-3.04 12.38-4.56 15.42-1 .3-2.24.59-3.72.87 2-3.42 3.62-7.39 4.86-11.91h-6.21c-1.58-5.12-2.4-10.12-2.46-15h8.76c-.42 1.86-.63 3.84-.63 5.94 0 2.08.34 4.46 1.02 7.14.14-.54.38-1.48.72-2.82.34-1.36.59-2.33.75-2.91.16-.58.4-1.4.72-2.46.34-1.06.64-1.85.9-2.37.28-.54.62-1.14 1.02-1.8.72-1.18 1.67-1.98 2.85-2.4.34-.1 1.03-.2 2.07-.3 1.04-.12 1.79-.33 2.25-.63-.54 1.24-1.1 2.3-1.68 3.18zm13.098 7.89a52.64 52.64 0 01-.12-3.87c0-1.54.07-3.07.21-4.59h8.28c-.74 3.7-1.11 7.24-1.11 10.62 0 1.58.07 3.04.21 4.38h-6.57c-.3-1.54-.52-2.92-.66-4.14-1-.64-2.72-.96-5.16-.96-1.16 0-2.3.07-3.42.21-1.36-3.06-2.26-6.43-2.7-10.11h7.65c0 5.18 1.13 8 3.39 8.46zm30.168 6.3V36h-6.96a25.59 25.59 0 00-.51-3.54 30.66 30.66 0 01-4.2 3.54h-6.99c-.14-.82-.21-1.9-.21-3.24 0-1.36.2-2.72.6-4.08 1.44-.42 2.82-1.13 4.14-2.13 1.34-1 2.31-2.08 2.91-3.24-.54-.84-1.11-1.61-1.71-2.31h9.96c1.98 4.3 2.97 9.22 2.97 14.76zm-8.01-5.49c-.52-1.78-1.2-3.46-2.04-5.04-.94 2.76-1.48 5.37-1.62 7.83 1.44-.74 2.66-1.67 3.66-2.79zm21.168-12.72c.7.44 1.52.66 2.46.66.96 0 1.82-.33 2.58-.99.04 0-.05.2-.27.6-.22.38-.59.78-1.11 1.2-.66.56-1.55.84-2.67.84h-.15c-.96 0-1.94-.31-2.94-.93l-.42-.24c.1-.6.28-1.26.54-1.98.28-.74.43-1.11.45-1.11l1.53 1.95zM225.932 36c.26-2 .39-4.36.39-7.08 0-2.74-.18-5.38-.54-7.92h7.92c.02.36.03 1.32.03 2.88 0 1.56-.18 3.63-.54 6.21 1.6-1.46 3.03-3.18 4.29-5.16a30.93 30.93 0 00-.33-3.93h7.77c.04 1.2.06 2.1.06 2.7 0 3.88-.38 7.98-1.14 12.3h-7.17c.4-2.68.66-5.1.78-7.26-1.12 1.74-2.96 4.16-5.52 7.26h-6z" fill="#000"/></svg>