<svg width="30" height="30" viewBox="0 0 30 30" fill="none" xmlns="http://www.w3.org/2000/svg">
<circle cx="15" cy="15" r="14.5" fill="#5FB45E" stroke="white"/>
<path d="M22.25 22.4062H20.4531C20.3578 22.4062 20.2664 22.3684 20.199 22.301C20.1316 22.2336 20.0938 22.1422 20.0938 22.0469C20.0938 21.9516 20.1316 21.8602 20.199 21.7928C20.2664 21.7254 20.3578 21.6875 20.4531 21.6875H22.25C23.0122 21.6866 23.743 21.3835 24.282 20.8445C24.821 20.3055 25.1241 19.5747 25.125 18.8125V13.7812C25.1241 13.019 24.821 12.2882 24.282 11.7493C23.743 11.2103 23.0122 10.9071 22.25 10.9062H20.4531C20.3578 10.9062 20.2664 10.8684 20.199 10.801C20.1316 10.7336 20.0938 10.6422 20.0938 10.5469C20.0938 10.4516 20.1316 10.3602 20.199 10.2928C20.2664 10.2254 20.3578 10.1875 20.4531 10.1875H22.25C23.2028 10.1885 24.1163 10.5675 24.79 11.2412C25.4637 11.915 25.8427 12.8284 25.8438 13.7812V18.8125C25.8427 19.7653 25.4637 20.6788 24.79 21.3525C24.1163 22.0262 23.2028 22.4052 22.25 22.4062V22.4062Z" fill="white"/>
<path d="M22.25 20.25H20.4531C20.3578 20.25 20.2664 20.2121 20.199 20.1447C20.1316 20.0773 20.0938 19.9859 20.0938 19.8906C20.0938 19.7953 20.1316 19.7039 20.199 19.6365C20.2664 19.5691 20.3578 19.5312 20.4531 19.5312H22.25C22.4406 19.5312 22.6234 19.4555 22.7582 19.3207C22.893 19.1859 22.9688 19.0031 22.9688 18.8125V13.7812C22.9688 13.5906 22.893 13.4078 22.7582 13.273C22.6234 13.1382 22.4406 13.0625 22.25 13.0625H20.4531C20.3578 13.0625 20.2664 13.0246 20.199 12.9572C20.1316 12.8898 20.0938 12.7984 20.0938 12.7031C20.0938 12.6078 20.1316 12.5164 20.199 12.449C20.2664 12.3816 20.3578 12.3438 20.4531 12.3438H22.25C22.6312 12.3438 22.9969 12.4952 23.2665 12.7648C23.536 13.0344 23.6875 13.4 23.6875 13.7812V18.8125C23.6875 19.1937 23.536 19.5594 23.2665 19.829C22.9969 20.0985 22.6312 20.25 22.25 20.25Z" fill="white"/>
<path d="M19.7344 23.8438H8.23438C7.94844 23.8438 7.67421 23.7302 7.47203 23.528C7.26984 23.3258 7.15625 23.0516 7.15625 22.7656V9.82812C7.15625 9.54219 7.26984 9.26796 7.47203 9.06578C7.67421 8.86359 7.94844 8.75 8.23438 8.75H19.7344C20.0203 8.75 20.2945 8.86359 20.4967 9.06578C20.6989 9.26796 20.8125 9.54219 20.8125 9.82812V22.7656C20.8125 23.0516 20.6989 23.3258 20.4967 23.528C20.2945 23.7302 20.0203 23.8438 19.7344 23.8438ZM8.23438 9.46875C8.13906 9.46875 8.04765 9.50661 7.98026 9.57401C7.91286 9.6414 7.875 9.73281 7.875 9.82812V22.7656C7.875 22.8609 7.91286 22.9523 7.98026 23.0197C8.04765 23.0871 8.13906 23.125 8.23438 23.125H19.7344C19.8297 23.125 19.9211 23.0871 19.9885 23.0197C20.0559 22.9523 20.0938 22.8609 20.0938 22.7656V9.82812C20.0938 9.73281 20.0559 9.6414 19.9885 9.57401C19.9211 9.50661 19.8297 9.46875 19.7344 9.46875H8.23438Z" fill="white"/>
<path d="M11.1094 8.03127C11.0383 8.03126 10.9689 8.01017 10.9098 7.97068C10.8507 7.93119 10.8046 7.87507 10.7774 7.80941C10.7502 7.74376 10.7431 7.67151 10.757 7.60181C10.7709 7.53211 10.8051 7.46808 10.8553 7.41782C10.9517 7.34036 11.0295 7.24226 11.083 7.13074C11.1364 7.01922 11.1642 6.89713 11.1642 6.77346C11.1642 6.64979 11.1364 6.5277 11.083 6.41618C11.0295 6.30466 10.9517 6.20656 10.8553 6.1291C10.693 5.98414 10.5632 5.80655 10.4743 5.60794C10.3854 5.40933 10.3394 5.19418 10.3394 4.97658C10.3394 4.75898 10.3854 4.54384 10.4743 4.34523C10.5632 4.14662 10.693 3.96902 10.8553 3.82407C10.8885 3.78974 10.9281 3.76237 10.972 3.74353C11.0158 3.7247 11.063 3.71478 11.1107 3.71437C11.1584 3.71395 11.2057 3.72305 11.2499 3.74112C11.2941 3.75919 11.3342 3.78587 11.3679 3.81961C11.4017 3.85336 11.4284 3.89348 11.4464 3.93765C11.4645 3.98181 11.4736 4.02914 11.4732 4.07685C11.4728 4.12457 11.4628 4.17173 11.444 4.21557C11.4252 4.25942 11.3978 4.29907 11.3635 4.33222C11.2671 4.40968 11.1893 4.50778 11.1358 4.6193C11.0823 4.73082 11.0546 4.85291 11.0546 4.97658C11.0546 5.10025 11.0823 5.22235 11.1358 5.33387C11.1893 5.44538 11.2671 5.54349 11.3635 5.62094C11.5258 5.7659 11.6556 5.94349 11.7445 6.1421C11.8334 6.34071 11.8794 6.55586 11.8794 6.77346C11.8794 6.99106 11.8334 7.2062 11.7445 7.40481C11.6556 7.60342 11.5258 7.78102 11.3635 7.92597C11.2961 7.99338 11.2047 8.03125 11.1094 8.03127V8.03127Z" fill="white"/>
<path d="M13.9844 8.03127C13.9133 8.03126 13.8439 8.01017 13.7848 7.97068C13.7257 7.93119 13.6796 7.87507 13.6524 7.80941C13.6252 7.74376 13.6181 7.67151 13.632 7.60181C13.6459 7.53211 13.6801 7.46808 13.7303 7.41782C13.8267 7.34036 13.9045 7.24226 13.958 7.13074C14.0114 7.01922 14.0392 6.89713 14.0392 6.77346C14.0392 6.64979 14.0114 6.5277 13.958 6.41618C13.9045 6.30466 13.8267 6.20656 13.7303 6.1291C13.568 5.98414 13.4382 5.80655 13.3493 5.60794C13.2604 5.40933 13.2144 5.19418 13.2144 4.97658C13.2144 4.75898 13.2604 4.54384 13.3493 4.34523C13.4382 4.14662 13.568 3.96902 13.7303 3.82407C13.7635 3.78974 13.8031 3.76237 13.847 3.74353C13.8908 3.7247 13.938 3.71478 13.9857 3.71437C14.0334 3.71395 14.0807 3.72305 14.1249 3.74112C14.1691 3.75919 14.2092 3.78587 14.2429 3.81961C14.2767 3.85336 14.3033 3.89348 14.3214 3.93765C14.3395 3.98181 14.3486 4.02914 14.3482 4.07685C14.3478 4.12457 14.3378 4.17173 14.319 4.21557C14.3002 4.25942 14.2728 4.29907 14.2385 4.33222C14.1421 4.40968 14.0643 4.50778 14.0108 4.6193C13.9573 4.73082 13.9296 4.85291 13.9296 4.97658C13.9296 5.10025 13.9573 5.22235 14.0108 5.33387C14.0643 5.44538 14.1421 5.54349 14.2385 5.62094C14.4008 5.7659 14.5306 5.94349 14.6195 6.1421C14.7084 6.34071 14.7544 6.55586 14.7544 6.77346C14.7544 6.99106 14.7084 7.2062 14.6195 7.40481C14.5306 7.60342 14.4008 7.78102 14.2385 7.92597C14.1711 7.99338 14.0797 8.03125 13.9844 8.03127V8.03127Z" fill="white"/>
<path d="M16.8594 8.03127C16.7883 8.03126 16.7189 8.01017 16.6598 7.97068C16.6007 7.93119 16.5546 7.87507 16.5274 7.80941C16.5002 7.74376 16.4931 7.67151 16.507 7.60181C16.5209 7.53211 16.5551 7.46808 16.6053 7.41782C16.7017 7.34036 16.7795 7.24226 16.833 7.13074C16.8864 7.01922 16.9142 6.89713 16.9142 6.77346C16.9142 6.64979 16.8864 6.5277 16.833 6.41618C16.7795 6.30466 16.7017 6.20656 16.6053 6.1291C16.443 5.98414 16.3132 5.80655 16.2243 5.60794C16.1354 5.40933 16.0894 5.19418 16.0894 4.97658C16.0894 4.75898 16.1354 4.54384 16.2243 4.34523C16.3132 4.14662 16.443 3.96902 16.6053 3.82407C16.6385 3.78974 16.6781 3.76237 16.722 3.74353C16.7658 3.7247 16.813 3.71478 16.8607 3.71437C16.9084 3.71395 16.9557 3.72305 16.9999 3.74112C17.0441 3.75919 17.0842 3.78587 17.1179 3.81961C17.1517 3.85336 17.1783 3.89348 17.1964 3.93765C17.2145 3.98181 17.2236 4.02914 17.2232 4.07685C17.2228 4.12457 17.2128 4.17173 17.194 4.21557C17.1752 4.25942 17.1478 4.29907 17.1135 4.33222C17.0171 4.40968 16.9393 4.50778 16.8858 4.6193C16.8324 4.73082 16.8046 4.85291 16.8046 4.97658C16.8046 5.10025 16.8324 5.22235 16.8858 5.33387C16.9393 5.44538 17.0171 5.54349 17.1135 5.62094C17.2758 5.7659 17.4056 5.94349 17.4945 6.1421C17.5834 6.34071 17.6294 6.55586 17.6294 6.77346C17.6294 6.99106 17.5834 7.2062 17.4945 7.40481C17.4056 7.60342 17.2758 7.78102 17.1135 7.92597C17.0461 7.99338 16.9547 8.03125 16.8594 8.03127V8.03127Z" fill="white"/>
</svg>
