<svg width="28" height="28" xmlns="http://www.w3.org/2000/svg">

 <g>
  <title>background</title>
  <rect fill="none" id="canvas_background" height="602" width="802" y="-1" x="-1"/>
 </g>
 <g>
  <title>Layer 1</title>
  <path id="svg_1" stroke-width="0.3" stroke="white" fill="#0F2438" d="m10.6415,20.9294c-1.94943,0 -3.53536,1.586 -3.53536,3.5354c0,1.9493 1.58593,3.5353 3.53536,3.5353c1.9493,0 3.5353,-1.586 3.5353,-3.5353c0,-1.9494 -1.586,-3.5354 -3.5353,-3.5354zm0,4.9495c-0.77994,0 -1.41415,-0.6343 -1.41415,-1.4141c0,-0.7799 0.63421,-1.4141 1.41415,-1.4141c0.7795,0 1.4141,0.6342 1.4141,1.4141c0,0.7798 -0.6342,1.4141 -1.4141,1.4141z"/>
  <path id="svg_2" stroke-width="0.3" stroke="white" fill="#0F2438" d="m21.1062,20.9294c-1.9494,0 -3.5353,1.586 -3.5353,3.5354c0,1.9493 1.5859,3.5353 3.5353,3.5353c1.9494,0 3.5353,-1.586 3.5353,-3.5353c0,-1.9494 -1.5859,-3.5354 -3.5353,-3.5354zm0,4.9495c-0.7799,0 -1.4141,-0.6343 -1.4141,-1.4141c0,-0.7799 0.6342,-1.4141 1.4141,-1.4141c0.7799,0 1.4141,0.6342 1.4141,1.4141c0,0.7798 -0.6342,1.4141 -1.4141,1.4141z"/>
  <path id="svg_3" stroke-width="0.3" stroke="white" fill="#0F2438" d="m27.2391,6.90559c-0.2015,-0.25314 -0.5069,-0.40053 -0.8301,-0.40053l-18.57086,0l-0.96409,-4.87236c-0.08449,-0.42673 -0.42103,-0.75868 -0.84918,-0.83715l-4.24237,-0.77777c-0.57728,-0.10642 -1.1288,0.27579 -1.23451,0.85203c-0.10571,0.57624 0.27574,1.1288 0.85203,1.23451l3.53318,0.64766l3.11247,15.73172c0.09828,0.4967 0.53419,0.8548 1.04043,0.8548l14.8483,0c0.4938,0 0.922,-0.3404 1.0333,-0.8223l2.4747,-10.71193c0.0728,-0.315 -0.0021,-0.64591 -0.2033,-0.89868zm-4.1483,10.31181l-13.13364,0l-1.69941,-8.5908l16.81735,0l-1.9843,8.5908z"/>
  <rect stroke="#0f2438" rx="2" id="svg_7" height="6.63888" width="15.59149" y="11.0719" x="8.69935" stroke-width="1.5" fill="#0f2438"/>
 </g>
</svg>