<svg width="24" height="24" viewBox="0 0 24 24" fill="none" xmlns="http://www.w3.org/2000/svg">
<path fill-rule="evenodd" clip-rule="evenodd" d="M23.2588 23.3304C24.1489 22.4376 24.1489 20.9911 23.2588 20.0983L18.5568 15.3817C18.223 15.0469 18.1362 14.4375 18.361 14.0223C18.361 14.0223 18.3454 14.0848 18.51 13.721C19.0619 12.5 19.369 11.1429 19.369 9.7143C19.369 4.34823 15.0341 0 9.6845 0C4.3349 0 0 4.34823 0 9.7143C0 15.0804 4.3349 19.4286 9.6845 19.4286C11.1043 19.4286 12.4528 19.1228 13.6678 18.5714C14.035 18.4063 13.9771 18.4197 13.9771 18.4197C14.3977 18.1942 15.0007 18.279 15.3345 18.6139L20.0366 23.3304C20.9267 24.2232 22.3687 24.2232 23.2588 23.3304ZM15.0964 9.71429C15.0964 12.7121 12.673 15.1429 9.68448 15.1429C6.69592 15.1429 4.27258 12.7121 4.27258 9.71429C4.27258 6.71651 6.69592 4.28571 9.68448 4.28571C12.673 4.28571 15.0964 6.71651 15.0964 9.71429Z" fill="#D3E4C5"/>
</svg>
